<svg xmlns="http://www.w3.org/2000/svg" viewBox="0 0 160 160" fill="none">
  <!-- Squished outer leaves -->
  <ellipse cx="80" cy="88" rx="72" ry="55" fill="#CFEFCF" stroke="#8fc98f" stroke-width="4" transform="rotate(-5,80,88)"/>
  <ellipse cx="68" cy="78" rx="42" ry="40" fill="#B8E6B8" opacity="0.7"/>
  <ellipse cx="95" cy="82" rx="38" ry="38" fill="#B8E6B8" opacity="0.5"/>

  <!-- Inner layers -->
  <ellipse cx="80" cy="85" rx="32" ry="30" fill="#D8F5D8"/>
  <ellipse cx="80" cy="83" rx="18" ry="18" fill="#E8FCE8"/>

  <!-- Leaf veins (wobbly) -->
  <path d="M78,52 Q75,68 80,98" stroke="#A6D9A6" stroke-width="2" fill="none"/>
  <path d="M58,60 Q70,72 80,88" stroke="#A6D9A6" stroke-width="1.5" fill="none"/>

  <!-- Surprised face -->
  <ellipse cx="68" cy="78" rx="6" ry="7" fill="#5a7a5a"/>
  <ellipse cx="92" cy="78" rx="6" ry="7" fill="#5a7a5a"/>
  <ellipse cx="66" cy="75" rx="2.5" ry="3" fill="#fff"/>
  <ellipse cx="90" cy="75" rx="2.5" ry="3" fill="#fff"/>
  <ellipse cx="80" cy="92" rx="7" ry="8" fill="#5a7a5a"/> <!-- O mouth -->
  <ellipse cx="80" cy="91" rx="4" ry="5" fill="#FF9090"/>

  <!-- Sweat drop -->
  <path d="M105,62 Q108,55 106,50 Q110,56 105,62Z" fill="#8ED8FF" opacity="0.7"/>
</svg>