<svg xmlns="http://www.w3.org/2000/svg" viewBox="0 0 160 160" fill="none">
  <!-- Outer leaves -->
  <ellipse cx="80" cy="85" rx="68" ry="65" fill="#CFEFCF" stroke="#8fc98f" stroke-width="4"/>
  <ellipse cx="65" cy="70" rx="45" ry="50" fill="#B8E6B8" opacity="0.7"/>
  <ellipse cx="95" cy="75" rx="40" ry="48" fill="#B8E6B8" opacity="0.5"/>

  <!-- Inner layers -->
  <ellipse cx="80" cy="80" rx="35" ry="38" fill="#D8F5D8"/>
  <ellipse cx="80" cy="78" rx="20" ry="22" fill="#E8FCE8"/>

  <!-- Leaf veins -->
  <path d="M80,45 Q78,65 80,95" stroke="#A6D9A6" stroke-width="2" fill="none"/>
  <path d="M60,55 Q72,70 80,85" stroke="#A6D9A6" stroke-width="1.5" fill="none"/>
  <path d="M100,55 Q88,70 80,85" stroke="#A6D9A6" stroke-width="1.5" fill="none"/>

  <!-- Cute face -->
  <ellipse cx="68" cy="75" rx="5" ry="6" fill="#5a7a5a"/>
  <ellipse cx="92" cy="75" rx="5" ry="6" fill="#5a7a5a"/>
  <ellipse cx="66" cy="73" rx="2" ry="2.5" fill="#fff"/>
  <ellipse cx="90" cy="73" rx="2" ry="2.5" fill="#fff"/>
  <path d="M72,88 Q80,95 88,88" stroke="#5a7a5a" stroke-width="2.5" fill="none" stroke-linecap="round"/>

  <!-- Cheek blush -->
  <ellipse cx="58" cy="85" rx="8" ry="5" fill="#FFD6E8" opacity="0.5"/>
  <ellipse cx="102" cy="85" rx="8" ry="5" fill="#FFD6E8" opacity="0.5"/>
</svg>